{"title":"Trigg Da Kidd - I'm The Man [2012/VOB]","uid":8334455,"size":189179904,"categoryP":"video","categoryS":"music_videos","magnet":"?xt=urn:btih:b2666fe892bd230f01624c5a3b12fe30bfbce760&amp;dn=Trigg+Da+Kidd+-+I%27m+The+Man+%5B2012%2FVOB%5D&amp;tr=udp%3A%2F%2Ftracker.openbittorrent.com%3A80&amp;tr=udp%3A%2F%2Fopen.demonii.com%3A1337&amp;tr=udp%3A%2F%2Ftracker.coppersurfer.tk%3A6969&amp;tr=udp%3A%2F%2Fexodus.desync.com%3A6969","seeders":1,"leechers":0,"uploader":"torrent-cracker","files":1,"time":1364954859,"description":"Made from the master copy uploaded previously. Start and end credits were removed.\n\nGeneral\nComplete name                            : Trigg Da Kidd_I'm The Man.vob\nFormat                                   : MPEG-PS\nFile size                                : 180 MiB\nDuration                                 : 4mn 51s\nOverall bit rate mode                    : Variable\nOverall bit rate                         : 5 198 Kbps\n\nVideo\nID                                       : 224 (0xE0)\nFormat                                   : MPEG Video\nFormat version                           : Version 2\nFormat profile                           : Main@Main\nFormat settings, BVOP                    : No\nFormat settings, Matrix                  : Default\nFormat settings, GOP                     : N=18\nDuration                                 : 4mn 50s\nBit rate mode                            : Variable\nBit rate                                 : 4 774 Kbps\nMaximum bit rate                         : 9 000 Kbps\nWidth                                    : 720 pixels\nHeight                                   : 480 pixels\nDisplay aspect ratio                     : 4:3\nFrame rate                               : 29.970 fps\nStandard                                 : NTSC\nColor space                              : YUV\nChroma subsampling                       : 4:2:0\nBit depth                                : 8 bits\nScan type                                : Progressive\nCompression mode                         : Lossy\nBits/(Pixel*Frame)                       : 0.461\nTime code of first frame                 : 00:00:00:00\nTime code source                         : Group of pictures header\nStream size                              : 165 MiB (92%)\n\nAudio\nID                                       : 189 (0xBD)-128 (0x80)\nFormat                                   : AC-3\nFormat/Info                              : Audio Coding 3\nMode extension                           : CM (complete main)\nFormat settings, Endianness              : Big\nMuxing mode                              : DVD-Video\nDuration                                 : 4mn 51s\nBit rate mode                            : Constant\nBit rate                                 : 320 Kbps\nChannel(s)                               : 2 channels\nChannel positions                        : Front: L R\nSampling rate                            : 48.0 KHz\nBit depth                                : 16 bits\nCompression mode                         : Lossy\nStream size                              : 11.1 MiB (6%)","torrent":{"xt":"urn:btih:b2666fe892bd230f01624c5a3b12fe30bfbce760","amp;dn":"Trigg+Da+Kidd+-+I%27m+The+Man+%5B2012%2FVOB%5D","amp;tr":["udp%3A%2F%2Ftracker.openbittorrent.com%3A80","udp%3A%2F%2Fopen.demonii.com%3A1337","udp%3A%2F%2Ftracker.coppersurfer.tk%3A6969","udp%3A%2F%2Fexodus.desync.com%3A6969"],"infoHash":"b2666fe892bd230f01624c5a3b12fe30bfbce760","infoHashBuffer":{"type":"Buffer","data":[178,102,111,232,146,189,35,15,1,98,76,90,59,18,254,48,191,188,231,96]},"announce":[],"urlList":[]}}